<?xml version="1.0" encoding="utf-8"?>
<!-- Generator: Adobe Illustrator 26.5.0, SVG Export Plug-In . SVG Version: 6.00 Build 0)  -->
<svg version="1.1" id="Laag_1" xmlns="http://www.w3.org/2000/svg" xmlns:xlink="http://www.w3.org/1999/xlink" x="0px" y="0px"
	 viewBox="0 0 841.89 507.21" style="enable-background:new 0 0 841.89 507.21;" xml:space="preserve">
<style type="text/css">
	.st0{fill:none;}
	.st1{fill:#33922E;}
	.st2{fill:url(#SVGID_1_);}
	.st3{fill:url(#SVGID_00000031917907669714829450000015913832100660198069_);}
	.st4{fill:url(#SVGID_00000007412186975473800420000007762593431265195913_);}
	.st5{fill:#FDC300;}
	.st6{fill:url(#SVGID_00000067952089684946019450000017391993040786650497_);}
	.st7{fill:url(#SVGID_00000150815737898805223980000001039563810277657477_);}
	.st8{fill:url(#SVGID_00000062894283664668166480000001104523721786297992_);}
	.st9{fill:url(#SVGID_00000131357596315321990810000005196128770583219362_);}
	.st10{fill:url(#SVGID_00000099626545317152862300000009602909580289538453_);}
	.st11{fill:url(#SVGID_00000138556377706558021140000008974975983781102764_);}
	.st12{fill:url(#SVGID_00000127751528975683756190000017222113956276184497_);}
	.st13{fill:url(#SVGID_00000154386031138897281670000016043496590769721478_);}
	.st14{fill:url(#SVGID_00000116933976434919317520000005392449202846491013_);}
	.st15{fill:url(#SVGID_00000093151938160692475760000003651143749866161307_);}
	.st16{fill:url(#SVGID_00000011741764169061909670000002864823008029980605_);}
	.st17{fill:url(#SVGID_00000036230272303548396420000002954643492883750078_);}
	.st18{fill:url(#SVGID_00000152255584583164433860000000682680762292170165_);}
	.st19{fill:url(#SVGID_00000130639427897421446020000006797493180079810457_);}
	.st20{fill:url(#SVGID_00000146486906191123612520000003211543877775547834_);}
	.st21{fill:url(#SVGID_00000158712576406227055490000017452964327893468857_);}
	.st22{fill:url(#SVGID_00000131352418257572958490000000412878464452016518_);}
	.st23{fill:url(#SVGID_00000178915203122435349610000008168829128412534716_);}
	.st24{fill:#FFFFFF;stroke:url(#Gebladerte);stroke-width:7;stroke-miterlimit:10;}
	.st25{fill:#F28C00;}
	.st26{fill:none;stroke:#000000;stroke-miterlimit:10;}
	.st27{fill:none;stroke:#F6F6F6;stroke-width:11;stroke-miterlimit:10;}
	.st28{fill:#FFFFFF;stroke:url(#SVGID_00000088096094423956453540000004943347311097839785_);stroke-width:7;stroke-miterlimit:10;}
</style>
<pattern  y="-641.52" width="446.64" height="259.18" patternUnits="userSpaceOnUse" id="Gebladerte" viewBox="146.56 -378.06 446.64 259.18" style="overflow:visible;">
	<g>
		<rect x="146.56" y="-378.06" class="st0" width="446.64" height="259.18"/>
		<g>
			<path class="st1" d="M525.4-187.37c5.52,4.58,10.66,12.46,11.44,22.75c1.08-10.23,3.2-18.13,8.21-23.96c0,0-6.33,3.1-8.62,9.15
				C533.47-184.68,525.4-187.37,525.4-187.37z"/>
			<path class="st1" d="M511.4-238.26c1.22,5.97,6.31,11.18,12.92,13.73c-2.71-6.99-1.7-13.8,2.15-19.79
				c-0.9,7.77,1.47,13.21,5.79,18.04c-1.36-4.83-1.24-9.27,1.08-13.87c-0.94,8.48,6.17,12.79,15.62,18.44
				c12.66,7.58,17.28,16.04,19.25,27.23c-3.45-6.87-9.9-13.14-27.86-17.29C518.05-216.92,509.95-224.18,511.4-238.26z"/>
			
				<linearGradient id="SVGID_1_" gradientUnits="userSpaceOnUse" x1="-38891.8867" y1="-53399.1367" x2="-38915.1836" y2="-53391.1992" gradientTransform="matrix(1 0 0 -1 39406.5586 -53548.4453)">
				<stop  offset="0.2331" style="stop-color:#F7A600"/>
				<stop  offset="0.7607" style="stop-color:#FDC300"/>
			</linearGradient>
			<path class="st2" d="M511.67-146.05c-4.69-4.6-6.91-12.18-7.27-21.72c-0.47-12.53-5.41-17.66-13.33-18.53
				c11.8,4.58,4.44,17.12,7.94,25.85c-6.44-4.79-4.38-20.68-17.63-21.4c9.78,3.2,2.83,16.68,9.29,24.5
				c-7.81-0.11-11.4,6.13-21.54,3.23c4.71,3.64,9.96,5.92,18.85,5.92c-6.25,3.86-9,8.63-11.31,15.35
				C486.79-143.45,501.52-147.52,511.67-146.05z"/>
			
				<radialGradient id="SVGID_00000096763714643035322960000000042566358373181576_" cx="-38813.3633" cy="-53429.5664" r="133.4365" gradientTransform="matrix(1 0 0 -1 39406.5586 -53548.4453)" gradientUnits="userSpaceOnUse">
				<stop  offset="0.3479" style="stop-color:#5EA62B"/>
				<stop  offset="0.7607" style="stop-color:#86BC25"/>
			</radialGradient>
			<path style="fill:url(#SVGID_00000096763714643035322960000000042566358373181576_);" d="M629.04-111.6
				c29.44,4.02,46.23,20.79,49.15,36.55c-3.92-9.25-12.98-15.22-23.6-18.63c10.62,14.01,7.19,31.87,21.12,41.7
				c-10.37-11.04-7.21-24.46-14.9-36.73c12.26,6.9,14.12,16.67,17.02,27.15c4.38,15.84,11.54,20.09,17.22,22.18
				c-11.7,0.45-28.66-4.53-36.78-20.1c-8.61-16.51-1.45-34.41-22.48-43.77c9.6,8.06,14.73,19.52,8.69,34.42
				c2.26-21.92-20.63-25.5-24.31-40.45c-0.63,11.53,7.18,21.22,14.55,25.9c-10.29-3.37-19.21-8.99-23.42-21.82
				c-6.92,21.39,5.31,38.45,12.9,38.45c2.63,0,4.54-1.67,4.54-4.16c0-6.45-11.64-6.45-14.6-18.85c5.32,10.82,25.55,8.87,25.55,20.76
				c0,9.74-13.64,14.04-22.36,7.98c6.39,8.34,21.26,8.62,25.55-1.42c0.66,4.31-1.31,10.76-7.45,13.13
				c-6.99,2.7-13.48-2.48-13.48-2.48c7.64,11.01,20.94,3.67,34.07,3.9c10.87,0.19,18.11,5.82,21.29,11.18
				c-2.97-1.49-4.64-1.89-7.63-1.95c6.29,3.88,10.85,12.8,9.05,21.47c-1.3-6.25-8.57-10.68-22.36-11.63
				c-15.56-1.08-23.81-3.57-29.1-9.3c11.2,4.96,28.94-1.91,40.99,6.03c-7.45-8.54-23.93-6.09-35.71-7.98
				c-20.71-3.32-33.32-38.29-31.71-53.63c-5.66,23.42,9.46,36.2,12.79,49.13c3.63,14.13-3.37,23.83-9.95,28.8
				c10.28-15.4-7.42-24.63-4.61-44.36c-5.23,19.19,4.44,24.66,4.44,34.6c0,9.76-8.58,12.99-10.29,25.55
				c-1.71-12.55-10.29-15.79-10.29-25.55c0-9.94,9.66-15.41,4.44-34.6c2.8,19.73-14.89,28.96-4.61,44.36
				c-6.58-4.98-13.58-14.67-9.95-28.8c3.32-12.93,18.44-25.71,12.79-49.13c1.62,15.35-11,50.31-31.71,53.63
				c-11.78,1.89-28.26-0.56-35.72,7.98c12.05-7.94,29.78-1.08,40.99-6.03c-5.29,5.73-13.54,8.23-29.1,9.3
				c-13.79,0.96-21.06,5.38-22.36,11.63c-1.8-8.67,2.75-17.59,9.05-21.47c-2.99,0.07-4.66,0.46-7.63,1.95
				c3.19-5.36,10.42-10.99,21.29-11.18c13.13-0.23,26.42,7.11,34.07-3.9c0,0-6.5,5.18-13.48,2.48c-6.15-2.37-8.12-8.82-7.45-13.13
				c4.29,10.04,19.16,9.76,25.55,1.42c-8.72,6.05-22.36,1.75-22.36-7.98c0-11.89,20.23-9.94,25.55-20.76
				c-2.96,12.41-14.6,12.41-14.6,18.85c0,2.49,1.91,4.16,4.54,4.16c7.58,0,19.82-17.06,12.9-38.45
				c-4.2,12.83-13.13,18.45-23.42,21.82c7.37-4.68,15.18-14.37,14.55-25.9c-3.68,14.95-26.56,18.53-24.31,40.45
				c-6.03-14.9-0.91-26.37,8.7-34.42C529.58-93.9,536.74-76,528.13-59.49c-8.12,15.57-25.08,20.55-36.78,20.1
				c5.67-2.09,12.84-6.33,17.22-22.18c2.9-10.48,4.77-20.25,17.02-27.15c-7.69,12.27-4.54,25.69-14.9,36.73
				c13.92-9.83,10.5-27.68,21.11-41.7c-10.62,3.41-19.68,9.38-23.6,18.63c2.91-15.76,19.71-32.53,49.15-36.55
				c-30.33-1.29-36.17,15.55-51.46,16.16c-9.68,0.38-18.14-8.39-28.03-13.68c12.11,3.07,31.11,11.33,41.16-2.13
				c0,0-6.19,5.26-18.28,3.73c-12.27-1.56-23.46-9.4-54.12-11.36c30.65-1.96,41.84-9.8,54.12-11.36
				c12.08-1.54,18.28,3.72,18.28,3.72c-10.06-13.46-29.05-5.2-41.16-2.13c9.9-5.29,18.35-14.06,28.03-13.68
				c15.28,0.61,21.13,17.45,51.46,16.16c-29.44-4.02-46.23-20.79-49.15-36.55c3.92,9.25,12.98,15.22,23.6,18.63
				c-10.62-14.01-7.19-31.87-21.11-41.7c10.37,11.04,7.21,24.46,14.9,36.73c-12.26-6.89-14.13-16.67-17.02-27.15
				c-4.38-15.85-11.55-20.09-17.22-22.18c11.7-0.45,28.66,4.53,36.78,20.1c8.61,16.51,1.45,34.41,22.48,43.77
				c-9.6-8.06-14.73-19.52-8.7-34.42c-2.25,21.92,20.63,25.5,24.31,40.45c0.63-11.53-7.18-21.22-14.55-25.9
				c10.29,3.37,19.22,8.99,23.42,21.82c6.93-21.39-5.31-38.46-12.9-38.46c-2.63,0-4.54,1.67-4.54,4.16c0,6.45,11.64,6.45,14.6,18.85
				c-5.32-10.82-25.55-8.87-25.55-20.76c0-9.74,13.64-14.04,22.36-7.99c-6.39-8.34-21.26-8.62-25.55,1.42
				c-0.66-4.31,1.31-10.76,7.45-13.13c6.98-2.7,13.48,2.48,13.48,2.48c-7.64-11.01-20.94-3.67-34.07-3.9
				c-10.87-0.19-18.11-5.82-21.29-11.18c2.97,1.48,4.64,1.88,7.63,1.95c-6.29-3.88-10.85-12.8-9.05-21.47
				c1.3,6.25,8.57,10.68,22.36,11.63c15.56,1.08,23.81,3.57,29.1,9.3c-11.2-4.96-28.94,1.91-40.99-6.03
				c7.45,8.54,23.93,6.09,35.72,7.98c20.71,3.32,33.32,38.29,31.71,53.63c5.65-23.42-9.46-36.2-12.79-49.13
				c-3.63-14.13,3.37-23.83,9.95-28.8c-10.28,15.4,7.42,24.63,4.61,44.36c5.23-19.19-4.44-24.66-4.44-34.6
				c0-9.76,8.59-13,10.29-25.55c1.71,12.55,10.29,15.79,10.29,25.55c0,9.94-9.66,15.41-4.44,34.6c-2.8-19.73,14.89-28.96,4.61-44.36
				c6.58,4.98,13.58,14.67,9.95,28.8c-3.33,12.93-18.44,25.71-12.79,49.13c-1.62-15.35,11-50.31,31.71-53.63
				c11.78-1.89,28.26,0.56,35.71-7.98c-12.05,7.94-29.79,1.07-40.99,6.03c5.29-5.74,13.54-8.23,29.1-9.3
				c13.78-0.95,21.06-5.38,22.36-11.63c1.8,8.67-2.76,17.59-9.05,21.47c2.99-0.07,4.66-0.47,7.63-1.95
				c-3.19,5.36-10.42,10.99-21.29,11.18c-13.13,0.23-26.43-7.11-34.07,3.9c0,0,6.5-5.18,13.48-2.48c6.14,2.37,8.12,8.82,7.45,13.13
				c-4.29-10.04-19.16-9.76-25.55-1.42c8.72-6.05,22.36-1.75,22.36,7.99c0,11.89-20.23,9.94-25.55,20.76
				c2.96-12.4,14.6-12.4,14.6-18.85c0-2.49-1.91-4.16-4.54-4.16c-7.59,0-19.82,17.06-12.9,38.46c4.21-12.83,13.13-18.45,23.42-21.82
				c-7.37,4.68-15.18,14.37-14.55,25.9c3.68-14.95,26.56-18.53,24.31-40.45c6.03,14.9,0.91,26.37-8.69,34.42
				c21.03-9.36,13.87-27.26,22.48-43.77c8.12-15.57,25.08-20.55,36.78-20.1c-5.68,2.09-12.84,6.33-17.22,22.18
				c-2.9,10.48-4.77,20.25-17.02,27.15c7.69-12.26,4.54-25.69,14.9-36.73c-13.92,9.83-10.5,27.68-21.12,41.7
				c10.62-3.41,19.68-9.38,23.6-18.63c-2.92,15.76-19.71,32.53-49.15,36.55c30.33,1.29,36.17-15.55,51.45-16.16
				c9.68-0.38,18.14,8.39,28.04,13.68c-12.11-3.07-31.11-11.33-41.16,2.13c0,0,6.19-5.26,18.28-3.72
				c12.27,1.56,23.46,9.4,54.12,11.36c-30.65,1.96-41.84,9.8-54.12,11.36c-12.08,1.53-18.28-3.73-18.28-3.73
				c10.06,13.46,29.05,5.2,41.16,2.13c-9.9,5.29-18.35,14.06-28.04,13.68C665.21-96.05,659.37-112.89,629.04-111.6z M662.39-118.88
				c4.61,1.24,8.63,3.77,14.49,3.77c7.11,0,11.07-2.75,16.74-3.77c-5.67-1.02-9.63-3.77-16.74-3.77
				C671.03-122.65,667.01-120.12,662.39-118.88z M590.18-209.19c0,5.12,3.02,8.4,3.02,12.12c0-3.73,3.02-7,3.02-12.12
				c0-4.57-2.25-6.65-3.02-11.43C592.43-215.84,590.18-213.76,590.18-209.19z M524-118.88c-4.61-1.24-8.63-3.77-14.49-3.77
				c-7.11,0-11.07,2.75-16.74,3.77c5.67,1.02,9.63,3.77,16.74,3.77C515.37-115.11,519.39-117.63,524-118.88z M596.21-28.57
				c0-5.12-3.02-8.4-3.02-12.12c0,3.72-3.02,7-3.02,12.12c0,4.57,2.25,6.65,3.02,11.43C593.96-21.91,596.21-24,596.21-28.57z
				 M638.27-118.88c-9.94,0-24.09-4.98-34.95-3.02c3.45-2.1,4.98-3.67,7.45-6.74c-4.41,0.43-6.76,0.8-10.11,2.31
				c2.66-6.02,3.19-9.4,3.72-15.44c-3.07,3.57-4.64,5.74-6.56,10.65c0.71-12.42-4.26-15.25-4.61-31.76
				c-0.36,16.51-5.32,19.34-4.61,31.76c-1.92-4.91-3.49-7.08-6.56-10.65c0.53,6.04,1.06,9.42,3.73,15.44
				c-3.36-1.51-5.71-1.87-10.12-2.31c2.47,3.07,4,4.64,7.45,6.74c-10.87-1.97-25.02,3.02-34.95,3.02c9.94,0,24.09,4.98,34.95,3.02
				c-3.45,2.1-4.98,3.67-7.45,6.74c4.41-0.43,6.76-0.8,10.12-2.31c-2.66,6.02-3.2,9.4-3.73,15.44c3.07-3.57,4.64-5.74,6.56-10.65
				c-0.71,12.42,4.26,15.25,4.61,31.76c0.36-16.51,5.32-19.34,4.61-31.76c1.93,4.91,3.5,7.08,6.56,10.65
				c-0.53-6.04-1.06-9.42-3.72-15.44c3.36,1.51,5.71,1.87,10.11,2.31c-2.47-3.07-4-4.64-7.45-6.74
				C614.18-113.9,628.33-118.88,638.27-118.88z"/>
			
				<linearGradient id="SVGID_00000044151687903665700640000006645232421498390960_" gradientUnits="userSpaceOnUse" x1="55266.75" y1="-53343.3164" x2="55266.75" y2="-53315.207" gradientTransform="matrix(-1 0 0 -1 55830.9844 -53548.4453)">
				<stop  offset="0.2331" style="stop-color:#F7A600"/>
				<stop  offset="0.7607" style="stop-color:#FDC300"/>
			</linearGradient>
			<path style="fill:url(#SVGID_00000044151687903665700640000006645232421498390960_);" d="M538.32-240.14
				c2.64,13.83,25.37,16.26,30.29,34.06c3.77-19.12,21.29-19.87,21.54-33.11c-3.18,7.8-10.84,5.79-15.88,12.12
				c0.85-6.15,4.63-11.89,12.38-15.08c-7.67-1.08-15.63,1.83-19.12,9.56c-2.56-4.17-2.81-8.45-0.67-13.87
				c-4.71,3.63-7.49,9.3-5.65,16.56C553.94-237.18,543.3-233.14,538.32-240.14z"/>
			<path class="st5" d="M611.42-118.88c-4.26-0.66-9.39-3.2-14.13-1.22c2.32-1.8,1.14-3.51,2.53-5.2c-1.92,1.39-3.51,0.5-4.99,2.75
				c1.54-5.31-0.53-8.14-1.63-14.12c-1.1,5.98-3.17,8.81-1.63,14.12c-1.47-2.24-3.07-1.36-4.98-2.75c1.38,1.68,0.21,3.39,2.53,5.2
				c-4.74-1.98-9.88,0.56-14.13,1.22c4.26,0.67,9.39,3.2,14.13,1.22c-2.32,1.8-1.14,3.52-2.53,5.2c1.92-1.39,3.51-0.5,4.98-2.74
				c-1.54,5.31,0.53,8.14,1.63,14.12c1.1-5.98,3.17-8.81,1.63-14.12c1.48,2.24,3.07,1.36,4.99,2.74c-1.38-1.68-0.21-3.39-2.53-5.2
				C602.03-115.68,607.16-118.21,611.42-118.88z"/>
		</g>
		<g>
			
				<linearGradient id="SVGID_00000172422141364848506950000017359432118518779548_" gradientUnits="userSpaceOnUse" x1="55605.9023" y1="-53399.1367" x2="55582.6016" y2="-53391.1992" gradientTransform="matrix(-1 0 0 -1 55830.9844 -53548.4453)">
				<stop  offset="0.2331" style="stop-color:#F7A600"/>
				<stop  offset="0.7607" style="stop-color:#FDC300"/>
			</linearGradient>
			<path style="fill:url(#SVGID_00000172422141364848506950000017359432118518779548_);" d="M228.09-146.05
				c4.69-4.6,6.91-12.18,7.27-21.72c0.47-12.53,5.41-17.66,13.33-18.53c-11.8,4.58-4.44,17.12-7.94,25.85
				c6.44-4.79,4.38-20.68,17.63-21.4c-9.78,3.2-2.84,16.68-9.29,24.5c7.81-0.11,11.4,6.13,21.54,3.23
				c-4.72,3.64-9.96,5.92-18.85,5.92c6.25,3.86,9,8.63,11.31,15.35C252.96-143.45,238.24-147.52,228.09-146.05z"/>
			<path class="st1" d="M214.36-187.37c-5.52,4.58-10.66,12.46-11.44,22.75c-1.08-10.23-3.2-18.13-8.21-23.96
				c0,0,6.33,3.1,8.62,9.15C206.28-184.68,214.36-187.37,214.36-187.37z"/>
			<path class="st1" d="M228.36-238.26c-1.22,5.97-6.31,11.18-12.92,13.73c2.71-6.99,1.7-13.8-2.15-19.79
				c0.9,7.77-1.47,13.21-5.79,18.04c1.36-4.83,1.24-9.27-1.08-13.87c0.94,8.48-6.17,12.79-15.62,18.44
				c-12.66,7.58-17.28,16.04-19.25,27.23c3.45-6.87,9.9-13.14,27.86-17.29C221.71-216.92,229.8-224.18,228.36-238.26z"/>
			
				<linearGradient id="SVGID_00000183950795680070185940000004659636280637489299_" gradientUnits="userSpaceOnUse" x1="-39231.0352" y1="-53343.3164" x2="-39231.0352" y2="-53315.207" gradientTransform="matrix(1 0 0 -1 39406.5586 -53548.4453)">
				<stop  offset="0.2331" style="stop-color:#F7A600"/>
				<stop  offset="0.7607" style="stop-color:#FDC300"/>
			</linearGradient>
			<path style="fill:url(#SVGID_00000183950795680070185940000004659636280637489299_);" d="M201.44-240.14
				c-2.64,13.83-25.37,16.26-30.29,34.06c-3.77-19.12-21.29-19.87-21.54-33.11c3.18,7.8,10.84,5.79,15.88,12.12
				c-0.85-6.15-4.63-11.89-12.38-15.08c7.67-1.08,15.62,1.83,19.12,9.56c2.56-4.17,2.81-8.45,0.67-13.87
				c4.71,3.63,7.49,9.3,5.65,16.56C185.82-237.18,196.46-233.14,201.44-240.14z"/>
			
				<radialGradient id="SVGID_00000023980264698709499260000006523514890191736969_" cx="-39260.0039" cy="-53429.5664" r="133.4365" gradientTransform="matrix(1 0 0 -1 39406.5586 -53548.4453)" gradientUnits="userSpaceOnUse">
				<stop  offset="0.3479" style="stop-color:#5EA62B"/>
				<stop  offset="0.7607" style="stop-color:#86BC25"/>
			</radialGradient>
			<path style="fill:url(#SVGID_00000023980264698709499260000006523514890191736969_);" d="M182.4-111.6
				c29.44,4.02,46.23,20.79,49.15,36.55c-3.92-9.25-12.98-15.22-23.6-18.63c10.62,14.01,7.19,31.87,21.12,41.7
				c-10.37-11.04-7.21-24.46-14.9-36.73c12.26,6.9,14.12,16.67,17.02,27.15c4.38,15.84,11.54,20.09,17.22,22.18
				c-11.7,0.45-28.66-4.53-36.78-20.1c-8.61-16.51-1.45-34.41-22.48-43.77c9.6,8.06,14.73,19.52,8.69,34.42
				c2.26-21.92-20.63-25.5-24.31-40.45c-0.63,11.53,7.18,21.22,14.55,25.9c-10.29-3.37-19.21-8.99-23.42-21.82
				c-6.92,21.39,5.31,38.45,12.9,38.45c2.63,0,4.54-1.67,4.54-4.16c0-6.45-11.64-6.45-14.6-18.85c5.32,10.82,25.55,8.87,25.55,20.76
				c0,9.74-13.64,14.04-22.36,7.98c6.39,8.34,21.26,8.62,25.55-1.42c0.66,4.31-1.31,10.76-7.45,13.13
				c-6.99,2.7-13.48-2.48-13.48-2.48c7.64,11.01,20.94,3.67,34.07,3.9c10.87,0.19,18.11,5.82,21.29,11.18
				c-2.97-1.49-4.64-1.89-7.63-1.95c6.29,3.88,10.85,12.8,9.05,21.47c-1.3-6.25-8.57-10.68-22.36-11.63
				c-15.56-1.08-23.81-3.57-29.1-9.3c11.2,4.96,28.94-1.91,40.99,6.03c-7.45-8.54-23.93-6.09-35.71-7.98
				c-20.71-3.32-33.32-38.29-31.71-53.63c-5.66,23.42,9.46,36.2,12.79,49.13c3.63,14.13-3.37,23.83-9.95,28.8
				c10.28-15.4-7.42-24.63-4.61-44.36c-5.23,19.19,4.44,24.66,4.44,34.6c0,9.76-8.58,12.99-10.29,25.55
				c-1.71-12.55-10.29-15.79-10.29-25.55c0-9.94,9.66-15.41,4.44-34.6c2.8,19.73-14.89,28.96-4.61,44.36
				c-6.58-4.98-13.58-14.67-9.95-28.8c3.32-12.93,18.44-25.71,12.79-49.13c1.62,15.35-11,50.31-31.71,53.63
				c-11.78,1.89-28.26-0.56-35.72,7.98c12.05-7.94,29.78-1.08,40.99-6.03c-5.29,5.73-13.54,8.23-29.1,9.3
				c-13.79,0.96-21.06,5.38-22.36,11.63c-1.8-8.67,2.75-17.59,9.05-21.47c-2.99,0.07-4.66,0.46-7.63,1.95
				c3.19-5.36,10.42-10.99,21.29-11.18c13.13-0.23,26.42,7.11,34.07-3.9c0,0-6.5,5.18-13.48,2.48c-6.15-2.37-8.12-8.82-7.45-13.13
				c4.29,10.04,19.16,9.76,25.55,1.42c-8.72,6.05-22.36,1.75-22.36-7.98c0-11.89,20.23-9.94,25.55-20.76
				c-2.96,12.41-14.6,12.41-14.6,18.85c0,2.49,1.91,4.16,4.54,4.16c7.58,0,19.82-17.06,12.9-38.45
				c-4.2,12.83-13.13,18.45-23.42,21.82c7.37-4.68,15.18-14.37,14.55-25.9c-3.68,14.95-26.56,18.53-24.31,40.45
				c-6.03-14.9-0.91-26.37,8.7-34.42C82.94-93.9,90.1-76,81.49-59.49c-8.12,15.57-25.08,20.55-36.78,20.1
				c5.67-2.09,12.84-6.33,17.22-22.18c2.9-10.48,4.77-20.25,17.02-27.15c-7.69,12.27-4.54,25.69-14.9,36.73
				c13.92-9.83,10.5-27.68,21.11-41.7c-10.62,3.41-19.68,9.38-23.6,18.63c2.91-15.76,19.71-32.53,49.15-36.55
				c-30.33-1.29-36.17,15.55-51.46,16.16c-9.68,0.38-18.14-8.39-28.03-13.68c12.11,3.07,31.11,11.33,41.16-2.13
				c0,0-6.19,5.26-18.28,3.73c-12.27-1.56-23.46-9.4-54.12-11.36c30.65-1.96,41.84-9.8,54.12-11.36
				c12.08-1.54,18.28,3.72,18.28,3.72c-10.06-13.46-29.05-5.2-41.16-2.13c9.9-5.29,18.35-14.06,28.03-13.68
				c15.28,0.61,21.13,17.45,51.46,16.16c-29.44-4.02-46.23-20.79-49.15-36.55c3.92,9.25,12.98,15.22,23.6,18.63
				c-10.62-14.01-7.19-31.87-21.11-41.7c10.37,11.04,7.21,24.46,14.9,36.73c-12.26-6.89-14.13-16.67-17.02-27.15
				c-4.38-15.85-11.55-20.09-17.22-22.18c11.7-0.45,28.66,4.53,36.78,20.1c8.61,16.51,1.45,34.41,22.48,43.77
				c-9.6-8.06-14.73-19.52-8.7-34.42c-2.25,21.92,20.63,25.5,24.31,40.45c0.63-11.53-7.18-21.22-14.55-25.9
				c10.29,3.37,19.22,8.99,23.42,21.82c6.93-21.39-5.31-38.46-12.9-38.46c-2.63,0-4.54,1.67-4.54,4.16c0,6.45,11.64,6.45,14.6,18.85
				c-5.32-10.82-25.55-8.87-25.55-20.76c0-9.74,13.64-14.04,22.36-7.99c-6.39-8.34-21.26-8.62-25.55,1.42
				c-0.66-4.31,1.31-10.76,7.45-13.13c6.98-2.7,13.48,2.48,13.48,2.48c-7.64-11.01-20.94-3.67-34.07-3.9
				c-10.87-0.19-18.11-5.82-21.29-11.18c2.97,1.48,4.64,1.88,7.63,1.95c-6.29-3.88-10.85-12.8-9.05-21.47
				c1.3,6.25,8.57,10.68,22.36,11.63c15.56,1.08,23.81,3.57,29.1,9.3c-11.2-4.96-28.94,1.91-40.99-6.03
				c7.45,8.54,23.93,6.09,35.72,7.98c20.71,3.32,33.32,38.29,31.71,53.63c5.65-23.42-9.46-36.2-12.79-49.13
				c-3.63-14.13,3.37-23.83,9.95-28.8c-10.28,15.4,7.42,24.63,4.61,44.36c5.23-19.19-4.44-24.66-4.44-34.6
				c0-9.76,8.59-13,10.29-25.55c1.71,12.55,10.29,15.79,10.29,25.55c0,9.94-9.66,15.41-4.44,34.6c-2.8-19.73,14.89-28.96,4.61-44.36
				c6.58,4.98,13.58,14.67,9.95,28.8c-3.33,12.93-18.44,25.71-12.79,49.13c-1.62-15.35,11-50.31,31.71-53.63
				c11.78-1.89,28.26,0.56,35.71-7.98c-12.05,7.94-29.79,1.07-40.99,6.03c5.29-5.74,13.54-8.23,29.1-9.3
				c13.78-0.95,21.06-5.38,22.36-11.63c1.8,8.67-2.76,17.59-9.05,21.47c2.99-0.07,4.66-0.47,7.63-1.95
				c-3.19,5.36-10.42,10.99-21.29,11.18c-13.13,0.23-26.43-7.11-34.07,3.9c0,0,6.5-5.18,13.48-2.48c6.14,2.37,8.12,8.82,7.45,13.13
				c-4.29-10.04-19.16-9.76-25.55-1.42c8.72-6.05,22.36-1.75,22.36,7.99c0,11.89-20.23,9.94-25.55,20.76
				c2.96-12.4,14.6-12.4,14.6-18.85c0-2.49-1.91-4.16-4.54-4.16c-7.59,0-19.82,17.06-12.9,38.46c4.21-12.83,13.13-18.45,23.42-21.82
				c-7.37,4.68-15.18,14.37-14.55,25.9c3.68-14.95,26.56-18.53,24.31-40.45c6.03,14.9,0.91,26.37-8.69,34.42
				c21.03-9.36,13.87-27.26,22.48-43.77c8.12-15.57,25.08-20.55,36.78-20.1c-5.68,2.09-12.84,6.33-17.22,22.18
				c-2.9,10.48-4.77,20.25-17.02,27.15c7.69-12.26,4.54-25.69,14.9-36.73c-13.92,9.83-10.5,27.68-21.12,41.7
				c10.62-3.41,19.68-9.38,23.6-18.63c-2.92,15.76-19.71,32.53-49.15,36.55c30.33,1.29,36.17-15.55,51.45-16.16
				c9.68-0.38,18.14,8.39,28.04,13.68c-12.11-3.07-31.11-11.33-41.16,2.13c0,0,6.19-5.26,18.28-3.72
				c12.27,1.56,23.46,9.4,54.12,11.36c-30.65,1.96-41.84,9.8-54.12,11.36c-12.08,1.53-18.28-3.73-18.28-3.73
				c10.06,13.46,29.05,5.2,41.16,2.13c-9.9,5.29-18.35,14.06-28.04,13.68C218.57-96.05,212.72-112.89,182.4-111.6z M215.75-118.88
				c4.61,1.24,8.63,3.77,14.49,3.77c7.11,0,11.07-2.75,16.74-3.77c-5.67-1.02-9.63-3.77-16.74-3.77
				C224.39-122.65,220.37-120.12,215.75-118.88z M143.54-209.19c0,5.12,3.02,8.4,3.02,12.12c0-3.73,3.02-7,3.02-12.12
				c0-4.57-2.25-6.65-3.02-11.43C145.79-215.84,143.54-213.76,143.54-209.19z M77.36-118.88c-4.61-1.24-8.63-3.77-14.49-3.77
				c-7.11,0-11.07,2.75-16.74,3.77c5.67,1.02,9.63,3.77,16.74,3.77C68.73-115.11,72.75-117.63,77.36-118.88z M149.57-28.57
				c0-5.12-3.02-8.4-3.02-12.12c0,3.72-3.02,7-3.02,12.12c0,4.57,2.25,6.65,3.02,11.43C147.32-21.91,149.57-24,149.57-28.57z
				 M191.62-118.88c-9.94,0-24.09-4.98-34.95-3.02c3.45-2.1,4.98-3.67,7.45-6.74c-4.41,0.43-6.76,0.8-10.11,2.31
				c2.66-6.02,3.19-9.4,3.72-15.44c-3.07,3.57-4.64,5.74-6.56,10.65c0.71-12.42-4.26-15.25-4.61-31.76
				c-0.36,16.51-5.32,19.34-4.61,31.76c-1.92-4.91-3.49-7.08-6.56-10.65c0.53,6.04,1.06,9.42,3.73,15.44
				c-3.36-1.51-5.71-1.87-10.12-2.31c2.47,3.07,4,4.64,7.45,6.74c-10.87-1.97-25.02,3.02-34.95,3.02c9.94,0,24.09,4.98,34.95,3.02
				c-3.45,2.1-4.98,3.67-7.45,6.74c4.41-0.43,6.76-0.8,10.12-2.31c-2.66,6.02-3.2,9.4-3.73,15.44c3.07-3.57,4.64-5.74,6.56-10.65
				c-0.71,12.42,4.26,15.25,4.61,31.76c0.36-16.51,5.32-19.34,4.61-31.76c1.93,4.91,3.5,7.08,6.56,10.65
				c-0.53-6.04-1.06-9.42-3.72-15.44c3.36,1.51,5.71,1.87,10.11,2.31c-2.47-3.07-4-4.64-7.45-6.74
				C167.54-113.9,181.69-118.88,191.62-118.88z"/>
			<path class="st5" d="M164.78-118.88c-4.26-0.66-9.39-3.2-14.13-1.22c2.32-1.8,1.14-3.51,2.53-5.2c-1.92,1.39-3.51,0.5-4.99,2.75
				c1.54-5.31-0.53-8.14-1.63-14.12c-1.1,5.98-3.17,8.81-1.63,14.12c-1.47-2.24-3.07-1.36-4.98-2.75c1.38,1.68,0.21,3.39,2.53,5.2
				c-4.74-1.98-9.88,0.56-14.13,1.22c4.26,0.67,9.39,3.2,14.13,1.22c-2.32,1.8-1.14,3.52-2.53,5.2c1.92-1.39,3.51-0.5,4.98-2.74
				c-1.54,5.31,0.53,8.14,1.63,14.12c1.1-5.98,3.17-8.81,1.63-14.12c1.48,2.24,3.07,1.36,4.99,2.74c-1.38-1.68-0.21-3.39-2.53-5.2
				C155.39-115.68,160.52-118.21,164.78-118.88z"/>
		</g>
		<g>
			
				<linearGradient id="SVGID_00000129205369260403791300000008389244965687880892_" gradientUnits="userSpaceOnUse" x1="55202.75" y1="36770.8789" x2="55202.75" y2="36798.9844" gradientTransform="matrix(-1 0 0 1 55766.9844 -37062.6875)">
				<stop  offset="0.2331" style="stop-color:#F7A600"/>
				<stop  offset="0.7607" style="stop-color:#FDC300"/>
			</linearGradient>
			<path style="fill:url(#SVGID_00000129205369260403791300000008389244965687880892_);" d="M538.32-256.8
				c2.64-13.83,25.37-16.26,30.29-34.06c3.77,19.12,21.29,19.87,21.54,33.12c-3.18-7.8-10.84-5.79-15.88-12.12
				c0.85,6.15,4.63,11.89,12.38,15.08c-7.67,1.08-15.63-1.83-19.12-9.56c-2.56,4.17-2.81,8.45-0.67,13.87
				c-4.71-3.63-7.49-9.3-5.65-16.56C553.94-259.76,543.3-263.8,538.32-256.8z"/>
			<path class="st1" d="M525.4-309.57c5.52-4.58,10.66-12.46,11.44-22.75c1.08,10.23,3.2,18.13,8.21,23.96c0,0-6.33-3.1-8.62-9.15
				C533.47-312.26,525.4-309.57,525.4-309.57z"/>
			<path class="st1" d="M511.4-258.68c1.22-5.97,6.31-11.18,12.92-13.73c-2.71,6.99-1.7,13.8,2.15,19.79
				c-0.9-7.77,1.47-13.21,5.79-18.04c-1.36,4.83-1.24,9.27,1.08,13.87c-0.94-8.48,6.17-12.79,15.62-18.44
				c12.66-7.58,17.28-16.04,19.25-27.23c-3.45,6.87-9.9,13.14-27.86,17.29C518.05-280.01,509.95-272.76,511.4-258.68z"/>
			
				<radialGradient id="SVGID_00000163763984252490149700000016214439982387707791_" cx="-38813.3633" cy="-53170.3828" r="133.4365" gradientTransform="matrix(1 0 0 -1 39406.5586 -53548.4453)" gradientUnits="userSpaceOnUse">
				<stop  offset="0.3479" style="stop-color:#5EA62B"/>
				<stop  offset="0.7607" style="stop-color:#86BC25"/>
			</radialGradient>
			<path style="fill:url(#SVGID_00000163763984252490149700000016214439982387707791_);" d="M629.04-370.79
				c29.44,4.02,46.23,20.79,49.15,36.55c-3.92-9.25-12.98-15.22-23.6-18.63c10.62,14.01,7.19,31.87,21.12,41.7
				c-10.37-11.04-7.21-24.46-14.9-36.73c12.26,6.9,14.12,16.67,17.02,27.15c4.38,15.84,11.54,20.09,17.22,22.18
				c-11.7,0.45-28.66-4.53-36.78-20.1c-8.61-16.51-1.45-34.41-22.48-43.77c9.6,8.06,14.73,19.52,8.69,34.42
				c2.26-21.92-20.63-25.51-24.31-40.45c-0.63,11.53,7.18,21.22,14.55,25.9c-10.29-3.37-19.21-8.99-23.42-21.82
				c-6.92,21.39,5.31,38.46,12.9,38.46c2.63,0,4.54-1.67,4.54-4.16c0-6.45-11.64-6.45-14.6-18.86c5.32,10.82,25.55,8.87,25.55,20.76
				c0,9.74-13.64,14.04-22.36,7.98c6.39,8.34,21.26,8.62,25.55-1.42c0.66,4.31-1.31,10.76-7.45,13.13
				c-6.99,2.7-13.48-2.48-13.48-2.48c7.64,11.01,20.94,3.67,34.07,3.9c10.87,0.19,18.11,5.82,21.29,11.18
				c-2.97-1.49-4.64-1.89-7.63-1.95c6.29,3.88,10.85,12.79,9.05,21.47c-1.3-6.25-8.57-10.68-22.36-11.63
				c-15.56-1.08-23.81-3.57-29.1-9.3c11.2,4.96,28.94-1.91,40.99,6.03c-7.45-8.54-23.93-6.09-35.71-7.98
				c-20.71-3.32-33.32-38.29-31.71-53.63c-5.66,23.42,9.46,36.2,12.79,49.13c3.63,14.13-3.37,23.83-9.95,28.8
				c10.28-15.4-7.42-24.63-4.61-44.36c-5.23,19.19,4.44,24.66,4.44,34.6c0,9.76-8.58,12.99-10.29,25.55
				c-1.71-12.55-10.29-15.79-10.29-25.55c0-9.94,9.66-15.41,4.44-34.6c2.8,19.73-14.89,28.96-4.61,44.36
				c-6.58-4.98-13.58-14.67-9.95-28.8c3.32-12.93,18.44-25.71,12.79-49.13c1.62,15.35-11,50.31-31.71,53.63
				c-11.78,1.89-28.26-0.56-35.72,7.98c12.05-7.94,29.78-1.08,40.99-6.03c-5.29,5.73-13.54,8.23-29.1,9.3
				c-13.79,0.96-21.06,5.38-22.36,11.63c-1.8-8.67,2.75-17.59,9.05-21.47c-2.99,0.06-4.66,0.46-7.63,1.95
				c3.19-5.36,10.42-10.99,21.29-11.18c13.13-0.23,26.42,7.11,34.07-3.9c0,0-6.5,5.18-13.48,2.48c-6.15-2.37-8.12-8.82-7.45-13.13
				c4.29,10.04,19.16,9.76,25.55,1.42c-8.72,6.05-22.36,1.75-22.36-7.98c0-11.89,20.23-9.94,25.55-20.76
				c-2.96,12.41-14.6,12.41-14.6,18.86c0,2.49,1.91,4.16,4.54,4.16c7.58,0,19.82-17.06,12.9-38.46
				c-4.2,12.83-13.13,18.45-23.42,21.82c7.37-4.68,15.18-14.38,14.55-25.9c-3.68,14.95-26.56,18.53-24.31,40.45
				c-6.03-14.9-0.91-26.37,8.7-34.42c-21.03,9.37-13.87,27.26-22.48,43.77c-8.12,15.57-25.08,20.55-36.78,20.1
				c5.67-2.09,12.84-6.33,17.22-22.18c2.9-10.48,4.77-20.25,17.02-27.15c-7.69,12.27-4.54,25.69-14.9,36.73
				c13.92-9.83,10.5-27.68,21.11-41.7c-10.62,3.41-19.68,9.38-23.6,18.63c2.91-15.76,19.71-32.53,49.15-36.55
				c-30.33-1.29-36.17,15.55-51.46,16.16c-9.68,0.38-18.14-8.39-28.03-13.68c12.11,3.07,31.11,11.33,41.16-2.13
				c0,0-6.19,5.26-18.28,3.73c-12.27-1.56-23.46-9.4-54.12-11.36c30.65-1.96,41.84-9.8,54.12-11.36
				c12.08-1.54,18.28,3.72,18.28,3.72c-10.06-13.46-29.05-5.2-41.16-2.13c9.9-5.29,18.35-14.06,28.03-13.68
				c15.28,0.61,21.13,17.45,51.46,16.16c-29.44-4.02-46.23-20.79-49.15-36.55c3.92,9.25,12.98,15.22,23.6,18.63
				c-10.62-14.01-7.19-31.87-21.11-41.7c10.37,11.04,7.21,24.46,14.9,36.73c-12.26-6.89-14.13-16.67-17.02-27.14
				c-4.38-15.85-11.55-20.09-17.22-22.18c11.7-0.45,28.66,4.53,36.78,20.1c8.61,16.51,1.45,34.41,22.48,43.77
				c-9.6-8.05-14.73-19.52-8.7-34.42c-2.25,21.92,20.63,25.5,24.31,40.45c0.63-11.53-7.18-21.22-14.55-25.9
				c10.29,3.37,19.22,8.99,23.42,21.82c6.93-21.39-5.31-38.46-12.9-38.46c-2.63,0-4.54,1.67-4.54,4.16c0,6.45,11.64,6.45,14.6,18.85
				c-5.32-10.82-25.55-8.87-25.55-20.76c0-9.74,13.64-14.04,22.36-7.98c-6.39-8.34-21.26-8.62-25.55,1.42
				c-0.66-4.31,1.31-10.76,7.45-13.13c6.98-2.7,13.48,2.48,13.48,2.48c-7.64-11.01-20.94-3.67-34.07-3.9
				c-10.87-0.19-18.11-5.82-21.29-11.18c2.97,1.48,4.64,1.88,7.63,1.95c-6.29-3.88-10.85-12.8-9.05-21.47
				c1.3,6.25,8.57,10.68,22.36,11.63c15.56,1.08,23.81,3.57,29.1,9.3c-11.2-4.96-28.94,1.91-40.99-6.03
				c7.45,8.54,23.93,6.09,35.72,7.98c20.71,3.32,33.32,38.29,31.71,53.63c5.65-23.42-9.46-36.2-12.79-49.13
				c-3.63-14.13,3.37-23.83,9.95-28.8c-10.28,15.4,7.42,24.63,4.61,44.36c5.23-19.19-4.44-24.66-4.44-34.6
				c0-9.76,8.59-12.99,10.29-25.55c1.71,12.55,10.29,15.79,10.29,25.55c0,9.94-9.66,15.41-4.44,34.6
				c-2.8-19.73,14.89-28.96,4.61-44.36c6.58,4.97,13.58,14.67,9.95,28.8c-3.33,12.93-18.44,25.71-12.79,49.13
				c-1.62-15.35,11-50.31,31.71-53.63c11.78-1.89,28.26,0.56,35.71-7.98c-12.05,7.94-29.79,1.07-40.99,6.03
				c5.29-5.74,13.54-8.23,29.1-9.3c13.78-0.96,21.06-5.38,22.36-11.63c1.8,8.67-2.76,17.59-9.05,21.47
				c2.99-0.07,4.66-0.47,7.63-1.95c-3.19,5.36-10.42,10.98-21.29,11.18c-13.13,0.23-26.43-7.11-34.07,3.9c0,0,6.5-5.18,13.48-2.48
				c6.14,2.37,8.12,8.82,7.45,13.13c-4.29-10.04-19.16-9.76-25.55-1.42c8.72-6.05,22.36-1.75,22.36,7.98
				c0,11.89-20.23,9.94-25.55,20.76c2.96-12.4,14.6-12.4,14.6-18.85c0-2.49-1.91-4.16-4.54-4.16c-7.59,0-19.82,17.06-12.9,38.46
				c4.21-12.84,13.13-18.45,23.42-21.82c-7.37,4.68-15.18,14.37-14.55,25.9c3.68-14.95,26.56-18.53,24.31-40.45
				c6.03,14.9,0.91,26.37-8.69,34.42c21.03-9.36,13.87-27.26,22.48-43.77c8.12-15.57,25.08-20.55,36.78-20.1
				c-5.68,2.09-12.84,6.33-17.22,22.18c-2.9,10.48-4.77,20.25-17.02,27.14c7.69-12.26,4.54-25.69,14.9-36.73
				c-13.92,9.83-10.5,27.68-21.12,41.7c10.62-3.41,19.68-9.38,23.6-18.63c-2.92,15.76-19.71,32.53-49.15,36.55
				c30.33,1.29,36.17-15.55,51.45-16.16c9.68-0.38,18.14,8.39,28.04,13.68c-12.11-3.07-31.11-11.33-41.16,2.13
				c0,0,6.19-5.26,18.28-3.72c12.27,1.56,23.46,9.4,54.12,11.36c-30.65,1.96-41.84,9.8-54.12,11.36
				c-12.08,1.53-18.28-3.73-18.28-3.73c10.06,13.46,29.05,5.2,41.16,2.13c-9.9,5.29-18.35,14.06-28.04,13.68
				C665.21-355.23,659.37-372.08,629.04-370.79z M662.39-378.06c4.61,1.24,8.63,3.77,14.49,3.77c7.11,0,11.07-2.75,16.74-3.77
				c-5.67-1.02-9.63-3.77-16.74-3.77C671.03-381.83,667.01-379.3,662.39-378.06z M590.18-468.37c0,5.12,3.02,8.4,3.02,12.12
				c0-3.73,3.02-7,3.02-12.12c0-4.57-2.25-6.65-3.02-11.44C592.43-475.02,590.18-472.94,590.18-468.37z M524-378.06
				c-4.61-1.24-8.63-3.77-14.49-3.77c-7.11,0-11.07,2.75-16.74,3.77c5.67,1.02,9.63,3.77,16.74,3.77
				C515.37-374.29,519.39-376.82,524-378.06z M596.21-287.75c0-5.12-3.02-8.4-3.02-12.12c0,3.72-3.02,7-3.02,12.12
				c0,4.57,2.25,6.65,3.02,11.43C593.96-281.1,596.21-283.18,596.21-287.75z M638.27-378.06c-9.94,0-24.09-4.98-34.95-3.02
				c3.45-2.1,4.98-3.67,7.45-6.74c-4.41,0.43-6.76,0.8-10.11,2.31c2.66-6.02,3.19-9.4,3.72-15.44c-3.07,3.57-4.64,5.74-6.56,10.65
				c0.71-12.42-4.26-15.25-4.61-31.76c-0.36,16.51-5.32,19.34-4.61,31.76c-1.92-4.91-3.49-7.08-6.56-10.65
				c0.53,6.04,1.06,9.42,3.73,15.44c-3.36-1.51-5.71-1.88-10.12-2.31c2.47,3.07,4,4.64,7.45,6.74c-10.87-1.97-25.02,3.02-34.95,3.02
				c9.94,0,24.09,4.98,34.95,3.02c-3.45,2.1-4.98,3.67-7.45,6.74c4.41-0.43,6.76-0.79,10.12-2.3c-2.66,6.02-3.2,9.4-3.73,15.44
				c3.07-3.56,4.64-5.74,6.56-10.65c-0.71,12.42,4.26,15.25,4.61,31.76c0.36-16.51,5.32-19.34,4.61-31.76
				c1.93,4.9,3.5,7.08,6.56,10.65c-0.53-6.04-1.06-9.42-3.72-15.44c3.36,1.51,5.71,1.87,10.11,2.3c-2.47-3.07-4-4.64-7.45-6.74
				C614.18-373.08,628.33-378.06,638.27-378.06z"/>
			
				<linearGradient id="SVGID_00000092454858643730966740000007656321195939812768_" gradientUnits="userSpaceOnUse" x1="-38891.8867" y1="36729.5977" x2="-38915.1875" y2="36737.5352" gradientTransform="matrix(1 0 0 1 39406.5586 -37077.2266)">
				<stop  offset="0.2331" style="stop-color:#F7A600"/>
				<stop  offset="0.7607" style="stop-color:#FDC300"/>
			</linearGradient>
			<path style="fill:url(#SVGID_00000092454858643730966740000007656321195939812768_);" d="M511.67-350.89
				c-4.69,4.6-6.91,12.19-7.27,21.72c-0.47,12.53-5.41,17.66-13.33,18.53c11.8-4.58,4.44-17.11,7.94-25.85
				c-6.44,4.79-4.38,20.68-17.63,21.4c9.78-3.2,2.83-16.68,9.29-24.5c-7.81,0.11-11.4-6.12-21.54-3.23
				c4.71-3.63,9.96-5.92,18.85-5.92c-6.25-3.86-9-8.62-11.31-15.35C486.79-353.49,501.52-349.42,511.67-350.89z"/>
			<path class="st5" d="M611.42-378.06c-4.26-0.66-9.39-3.2-14.13-1.22c2.32-1.8,1.14-3.52,2.53-5.2c-1.92,1.39-3.51,0.5-4.99,2.74
				c1.54-5.31-0.53-8.14-1.63-14.12c-1.1,5.97-3.17,8.81-1.63,14.12c-1.47-2.24-3.07-1.36-4.98-2.74c1.38,1.68,0.21,3.39,2.53,5.2
				c-4.74-1.98-9.88,0.55-14.13,1.22c4.26,0.67,9.39,3.2,14.13,1.22c-2.32,1.8-1.14,3.52-2.53,5.2c1.92-1.39,3.51-0.5,4.98-2.74
				c-1.54,5.31,0.53,8.14,1.63,14.12c1.1-5.98,3.17-8.81,1.63-14.12c1.48,2.24,3.07,1.36,4.99,2.74c-1.38-1.68-0.21-3.39-2.53-5.2
				C602.03-374.86,607.16-377.4,611.42-378.06z"/>
		</g>
		<g>
			
				<linearGradient id="SVGID_00000076593112879106446920000010397384331064420023_" gradientUnits="userSpaceOnUse" x1="55426.0703" y1="36900.4688" x2="55426.0703" y2="36928.5781" gradientTransform="matrix(-1 0 0 1 55766.9844 -37062.6875)">
				<stop  offset="0.2331" style="stop-color:#F7A600"/>
				<stop  offset="0.7607" style="stop-color:#FDC300"/>
			</linearGradient>
			<path style="fill:url(#SVGID_00000076593112879106446920000010397384331064420023_);" d="M315-127.21
				c2.64-13.83,25.37-16.26,30.29-34.06c3.77,19.12,21.29,19.87,21.54,33.12c-3.18-7.8-10.84-5.79-15.88-12.12
				c0.85,6.15,4.63,11.89,12.38,15.08c-7.67,1.08-15.63-1.83-19.12-9.56c-2.56,4.17-2.81,8.45-0.67,13.87
				c-4.71-3.63-7.49-9.3-5.65-16.56C330.62-130.17,319.98-134.21,315-127.21z"/>
			
				<linearGradient id="SVGID_00000159469724511756002600000002692091927650848433_" gradientUnits="userSpaceOnUse" x1="-38943.7148" y1="36900.4688" x2="-38943.7148" y2="36928.5781" gradientTransform="matrix(1 0 0 1 39342.5586 -37062.6875)">
				<stop  offset="0.2331" style="stop-color:#F7A600"/>
				<stop  offset="0.7607" style="stop-color:#FDC300"/>
			</linearGradient>
			<path style="fill:url(#SVGID_00000159469724511756002600000002692091927650848433_);" d="M424.76-127.21
				c-2.64-13.83-25.37-16.26-30.29-34.06c-3.77,19.12-21.29,19.87-21.54,33.12c3.18-7.8,10.84-5.79,15.88-12.12
				c-0.85,6.15-4.63,11.89-12.38,15.08c7.67,1.08,15.62-1.83,19.12-9.56c2.56,4.17,2.81,8.45,0.67,13.87
				c4.71-3.63,7.49-9.3,5.65-16.56C409.14-130.17,419.78-134.21,424.76-127.21z"/>
			
				<linearGradient id="SVGID_00000001627045758685269180000007328319124362387605_" gradientUnits="userSpaceOnUse" x1="55382.582" y1="-53269.543" x2="55359.2812" y2="-53261.6055" gradientTransform="matrix(-1 0 0 -1 55830.9844 -53548.4453)">
				<stop  offset="0.2331" style="stop-color:#F7A600"/>
				<stop  offset="0.7607" style="stop-color:#FDC300"/>
			</linearGradient>
			<path style="fill:url(#SVGID_00000001627045758685269180000007328319124362387605_);" d="M451.41-275.64
				c4.69-4.6,6.91-12.18,7.27-21.72c0.47-12.53,5.41-17.66,13.33-18.53c-11.8,4.58-4.44,17.12-7.94,25.85
				c6.44-4.79,4.38-20.68,17.63-21.4c-9.78,3.2-2.84,16.68-9.29,24.5c7.81-0.11,11.4,6.13,21.54,3.23
				c-4.72,3.64-9.96,5.92-18.85,5.92c6.25,3.86,9,8.63,11.31,15.35C476.28-273.04,461.56-277.11,451.41-275.64z"/>
			<path class="st1" d="M302.08-316.97c5.52,4.58,10.66,12.46,11.44,22.75c1.08-10.23,3.2-18.13,8.21-23.96c0,0-6.33,3.1-8.62,9.15
				C310.15-314.27,302.08-316.97,302.08-316.97z"/>
			<path class="st1" d="M288.08-367.85c1.22,5.97,6.31,11.18,12.92,13.73c-2.71-6.99-1.7-13.8,2.15-19.79
				c-0.9,7.77,1.47,13.21,5.79,18.04c-1.36-4.83-1.24-9.27,1.08-13.87c-0.94,8.48,6.17,12.79,15.62,18.44
				c12.66,7.58,17.28,16.04,19.25,27.23c-3.45-6.87-9.9-13.14-27.86-17.29C294.73-346.52,286.63-353.77,288.08-367.85z"/>
			
				<linearGradient id="SVGID_00000031899446560719691300000013863070612041420448_" gradientUnits="userSpaceOnUse" x1="-39115.207" y1="-53269.543" x2="-39138.5039" y2="-53261.6055" gradientTransform="matrix(1 0 0 -1 39406.5586 -53548.4453)">
				<stop  offset="0.2331" style="stop-color:#F7A600"/>
				<stop  offset="0.7607" style="stop-color:#FDC300"/>
			</linearGradient>
			<path style="fill:url(#SVGID_00000031899446560719691300000013863070612041420448_);" d="M288.35-275.64
				c-4.69-4.6-6.91-12.18-7.27-21.72c-0.47-12.53-5.41-17.66-13.33-18.53c11.8,4.58,4.44,17.12,7.94,25.85
				c-6.44-4.79-4.38-20.68-17.63-21.4c9.78,3.2,2.84,16.68,9.29,24.5c-7.81-0.11-11.4,6.13-21.54,3.23
				c4.71,3.64,9.96,5.92,18.85,5.92c-6.25,3.86-9,8.63-11.31,15.35C263.47-273.04,278.2-277.11,288.35-275.64z"/>
			<path class="st1" d="M437.68-316.97c-5.52,4.58-10.66,12.46-11.44,22.75c-1.08-10.23-3.2-18.13-8.21-23.96
				c0,0,6.33,3.1,8.62,9.15C429.6-314.27,437.68-316.97,437.68-316.97z"/>
			<path class="st1" d="M451.68-367.85c-1.22,5.97-6.31,11.18-12.92,13.73c2.71-6.99,1.7-13.8-2.15-19.79
				c0.9,7.77-1.47,13.21-5.79,18.04c1.36-4.83,1.24-9.27-1.08-13.87c0.94,8.48-6.17,12.79-15.62,18.44
				c-12.66,7.58-17.28,16.04-19.25,27.23c3.45-6.87,9.9-13.14,27.86-17.29C445.03-346.52,453.12-353.77,451.68-367.85z"/>
			
				<linearGradient id="SVGID_00000144302580209390998120000015307320324258931599_" gradientUnits="userSpaceOnUse" x1="-39007.7148" y1="-53213.7227" x2="-39007.7148" y2="-53185.6172" gradientTransform="matrix(1 0 0 -1 39406.5586 -53548.4453)">
				<stop  offset="0.2331" style="stop-color:#F7A600"/>
				<stop  offset="0.7607" style="stop-color:#FDC300"/>
			</linearGradient>
			<path style="fill:url(#SVGID_00000144302580209390998120000015307320324258931599_);" d="M424.76-369.73
				c-2.64,13.83-25.37,16.26-30.29,34.06c-3.77-19.12-21.29-19.87-21.54-33.11c3.18,7.8,10.84,5.79,15.88,12.12
				c-0.85-6.15-4.63-11.89-12.38-15.08c7.67-1.08,15.62,1.83,19.12,9.56c2.56-4.17,2.81-8.45,0.67-13.87
				c4.71,3.63,7.49,9.3,5.65,16.56C409.14-366.77,419.78-362.73,424.76-369.73z"/>
			<path class="st1" d="M302.08-179.97c5.52-4.58,10.66-12.46,11.44-22.75c1.08,10.23,3.2,18.14,8.21,23.96c0,0-6.33-3.1-8.62-9.15
				C310.15-182.67,302.08-179.97,302.08-179.97z"/>
			<path class="st1" d="M288.08-129.09c1.22-5.97,6.31-11.18,12.92-13.73c-2.71,6.99-1.7,13.8,2.15,19.79
				c-0.9-7.77,1.47-13.21,5.79-18.04c-1.36,4.83-1.24,9.27,1.08,13.87c-0.94-8.48,6.17-12.79,15.62-18.44
				c12.66-7.58,17.28-16.04,19.25-27.23c-3.45,6.87-9.9,13.14-27.86,17.29C294.73-150.42,286.63-143.16,288.08-129.09z"/>
			
				<radialGradient id="SVGID_00000123434208593519243970000008170921465763089556_" cx="-39036.6836" cy="-53299.9766" r="133.4365" gradientTransform="matrix(1 0 0 -1 39406.5586 -53548.4453)" gradientUnits="userSpaceOnUse">
				<stop  offset="0.3479" style="stop-color:#5EA62B"/>
				<stop  offset="0.7607" style="stop-color:#86BC25"/>
			</radialGradient>
			<path style="fill:url(#SVGID_00000123434208593519243970000008170921465763089556_);" d="M405.72-241.2
				c29.44,4.02,46.23,20.79,49.15,36.55c-3.92-9.25-12.98-15.22-23.6-18.63c10.62,14.01,7.19,31.87,21.12,41.7
				c-10.37-11.04-7.21-24.46-14.9-36.73c12.26,6.9,14.12,16.67,17.02,27.15c4.38,15.84,11.54,20.09,17.22,22.18
				c-11.7,0.45-28.66-4.53-36.78-20.1c-8.61-16.51-1.45-34.41-22.48-43.77c9.6,8.06,14.73,19.52,8.69,34.42
				c2.26-21.92-20.63-25.5-24.31-40.45c-0.63,11.53,7.18,21.22,14.55,25.9c-10.29-3.37-19.21-8.99-23.42-21.82
				c-6.92,21.39,5.31,38.46,12.9,38.46c2.63,0,4.54-1.67,4.54-4.16c0-6.45-11.64-6.45-14.6-18.85c5.32,10.82,25.55,8.87,25.55,20.76
				c0,9.74-13.64,14.04-22.36,7.98c6.39,8.34,21.26,8.62,25.55-1.42c0.66,4.31-1.31,10.76-7.45,13.13
				c-6.99,2.7-13.48-2.48-13.48-2.48c7.64,11.01,20.94,3.67,34.07,3.9c10.87,0.19,18.11,5.82,21.29,11.18
				c-2.97-1.49-4.64-1.89-7.63-1.95c6.29,3.88,10.85,12.8,9.05,21.47c-1.3-6.25-8.57-10.68-22.36-11.63
				c-15.56-1.08-23.81-3.57-29.1-9.3c11.2,4.96,28.94-1.91,40.99,6.03c-7.45-8.54-23.93-6.09-35.71-7.98
				c-20.71-3.32-33.32-38.29-31.71-53.63c-5.66,23.42,9.46,36.2,12.79,49.13c3.63,14.13-3.37,23.83-9.95,28.8
				c10.28-15.4-7.42-24.63-4.61-44.36c-5.23,19.19,4.44,24.66,4.44,34.6c0,9.76-8.58,12.99-10.29,25.55
				c-1.71-12.55-10.29-15.79-10.29-25.55c0-9.94,9.66-15.41,4.44-34.6c2.8,19.73-14.89,28.96-4.61,44.36
				c-6.58-4.98-13.58-14.67-9.95-28.8c3.32-12.93,18.44-25.71,12.79-49.13c1.62,15.35-11,50.31-31.71,53.63
				c-11.78,1.89-28.26-0.56-35.72,7.98c12.05-7.94,29.78-1.08,40.99-6.03c-5.29,5.73-13.54,8.23-29.1,9.3
				c-13.79,0.96-21.06,5.38-22.36,11.63c-1.8-8.67,2.75-17.59,9.05-21.47c-2.99,0.07-4.66,0.46-7.63,1.95
				c3.19-5.36,10.42-10.99,21.29-11.18c13.13-0.23,26.42,7.11,34.07-3.9c0,0-6.5,5.18-13.48,2.48c-6.15-2.37-8.12-8.82-7.45-13.13
				c4.29,10.04,19.16,9.76,25.55,1.42c-8.72,6.05-22.36,1.75-22.36-7.98c0-11.89,20.23-9.94,25.55-20.76
				c-2.96,12.41-14.6,12.41-14.6,18.85c0,2.49,1.91,4.16,4.54,4.16c7.58,0,19.82-17.06,12.9-38.46
				c-4.2,12.83-13.13,18.45-23.42,21.82c7.37-4.68,15.18-14.37,14.55-25.9c-3.68,14.95-26.56,18.53-24.31,40.45
				c-6.03-14.9-0.91-26.37,8.7-34.42c-21.03,9.36-13.87,27.26-22.48,43.77c-8.12,15.57-25.08,20.55-36.78,20.1
				c5.67-2.09,12.84-6.33,17.22-22.18c2.9-10.48,4.77-20.25,17.02-27.15c-7.69,12.27-4.54,25.69-14.9,36.73
				c13.92-9.83,10.5-27.68,21.11-41.7c-10.62,3.41-19.68,9.38-23.6,18.63c2.91-15.76,19.71-32.53,49.15-36.55
				c-30.33-1.29-36.17,15.55-51.46,16.16c-9.68,0.38-18.14-8.39-28.03-13.68c12.11,3.07,31.11,11.33,41.16-2.13
				c0,0-6.19,5.26-18.28,3.73c-12.27-1.56-23.46-9.4-54.12-11.36c30.65-1.96,41.84-9.8,54.12-11.36
				c12.08-1.54,18.28,3.72,18.28,3.72c-10.06-13.46-29.05-5.2-41.16-2.13c9.9-5.29,18.35-14.06,28.03-13.68
				c15.28,0.61,21.13,17.45,51.46,16.16c-29.44-4.02-46.23-20.79-49.15-36.55c3.92,9.25,12.98,15.22,23.6,18.63
				c-10.62-14.01-7.19-31.87-21.11-41.7c10.37,11.04,7.21,24.46,14.9,36.73c-12.26-6.89-14.13-16.67-17.02-27.15
				c-4.38-15.85-11.55-20.09-17.22-22.18c11.7-0.45,28.66,4.53,36.78,20.1c8.61,16.51,1.45,34.41,22.48,43.77
				c-9.6-8.06-14.73-19.52-8.7-34.42c-2.25,21.92,20.63,25.5,24.31,40.45c0.63-11.53-7.18-21.22-14.55-25.9
				c10.29,3.37,19.22,8.99,23.42,21.82c6.93-21.39-5.31-38.46-12.9-38.46c-2.63,0-4.54,1.67-4.54,4.16c0,6.45,11.64,6.45,14.6,18.85
				c-5.32-10.82-25.55-8.87-25.55-20.76c0-9.74,13.64-14.04,22.36-7.99c-6.39-8.34-21.26-8.62-25.55,1.42
				c-0.66-4.31,1.31-10.76,7.45-13.13c6.98-2.7,13.48,2.48,13.48,2.48c-7.64-11.01-20.94-3.67-34.07-3.9
				c-10.87-0.19-18.11-5.82-21.29-11.18c2.97,1.48,4.64,1.88,7.63,1.95c-6.29-3.88-10.85-12.8-9.05-21.47
				c1.3,6.25,8.57,10.68,22.36,11.63c15.56,1.08,23.81,3.57,29.1,9.3c-11.2-4.96-28.94,1.91-40.99-6.03
				c7.45,8.54,23.93,6.09,35.72,7.98c20.71,3.32,33.32,38.29,31.71,53.63c5.65-23.42-9.46-36.2-12.79-49.13
				c-3.63-14.13,3.37-23.83,9.95-28.8c-10.28,15.4,7.42,24.63,4.61,44.36c5.23-19.19-4.44-24.66-4.44-34.6
				c0-9.76,8.59-13,10.29-25.55c1.71,12.55,10.29,15.79,10.29,25.55c0,9.94-9.66,15.41-4.44,34.6c-2.8-19.73,14.89-28.96,4.61-44.36
				c6.58,4.98,13.58,14.67,9.95,28.8c-3.33,12.93-18.44,25.71-12.79,49.13c-1.62-15.35,11-50.31,31.71-53.63
				c11.78-1.89,28.26,0.56,35.71-7.98c-12.05,7.94-29.79,1.07-40.99,6.03c5.29-5.74,13.54-8.23,29.1-9.3
				c13.78-0.96,21.06-5.38,22.36-11.63c1.8,8.67-2.76,17.59-9.05,21.47c2.99-0.07,4.66-0.47,7.63-1.95
				c-3.19,5.36-10.42,10.99-21.29,11.18c-13.13,0.23-26.43-7.11-34.07,3.9c0,0,6.5-5.18,13.48-2.48c6.14,2.37,8.12,8.82,7.45,13.13
				c-4.29-10.04-19.16-9.76-25.55-1.42c8.72-6.05,22.36-1.75,22.36,7.99c0,11.89-20.23,9.94-25.55,20.76
				c2.96-12.4,14.6-12.4,14.6-18.85c0-2.49-1.91-4.16-4.54-4.16c-7.59,0-19.82,17.06-12.9,38.46c4.21-12.83,13.13-18.45,23.42-21.82
				c-7.37,4.68-15.18,14.37-14.55,25.9c3.68-14.95,26.56-18.53,24.31-40.45c6.03,14.9,0.91,26.37-8.69,34.42
				c21.03-9.36,13.87-27.26,22.48-43.77c8.12-15.57,25.08-20.55,36.78-20.1c-5.68,2.09-12.84,6.33-17.22,22.18
				c-2.9,10.48-4.77,20.25-17.02,27.15c7.69-12.26,4.54-25.69,14.9-36.73c-13.92,9.83-10.5,27.68-21.12,41.7
				c10.62-3.41,19.68-9.38,23.6-18.63c-2.92,15.76-19.71,32.53-49.15,36.55c30.33,1.29,36.17-15.55,51.45-16.16
				c9.68-0.38,18.14,8.39,28.04,13.68c-12.11-3.07-31.11-11.33-41.16,2.13c0,0,6.19-5.26,18.28-3.72
				c12.27,1.56,23.46,9.4,54.12,11.36c-30.65,1.96-41.84,9.8-54.12,11.36c-12.08,1.53-18.28-3.73-18.28-3.73
				c10.06,13.46,29.05,5.2,41.16,2.13c-9.9,5.29-18.35,14.06-28.04,13.68C441.89-225.64,436.04-242.48,405.72-241.2z M439.07-248.47
				c4.61,1.24,8.63,3.77,14.49,3.77c7.11,0,11.07-2.75,16.74-3.77c-5.67-1.02-9.63-3.77-16.74-3.77
				C447.71-252.24,443.69-249.71,439.07-248.47z M366.86-338.78c0,5.12,3.02,8.4,3.02,12.12c0-3.73,3.02-7,3.02-12.12
				c0-4.57-2.25-6.65-3.02-11.43C369.11-345.43,366.86-343.35,366.86-338.78z M300.68-248.47c-4.61-1.24-8.63-3.77-14.49-3.77
				c-7.11,0-11.07,2.75-16.74,3.77c5.67,1.02,9.63,3.77,16.74,3.77C292.05-244.7,296.07-247.23,300.68-248.47z M372.89-158.16
				c0-5.12-3.02-8.4-3.02-12.12c0,3.72-3.02,7-3.02,12.12c0,4.57,2.25,6.65,3.02,11.43C370.64-151.5,372.89-153.59,372.89-158.16z
				 M414.95-248.47c-9.94,0-24.09-4.98-34.95-3.02c3.45-2.1,4.98-3.67,7.45-6.74c-4.41,0.43-6.76,0.8-10.11,2.31
				c2.66-6.02,3.19-9.4,3.72-15.44c-3.07,3.57-4.64,5.74-6.56,10.65c0.71-12.42-4.26-15.25-4.61-31.76
				c-0.36,16.51-5.32,19.34-4.61,31.76c-1.92-4.91-3.49-7.08-6.56-10.65c0.53,6.04,1.06,9.42,3.73,15.44
				c-3.36-1.51-5.71-1.87-10.12-2.31c2.47,3.07,4,4.64,7.45,6.74c-10.87-1.97-25.02,3.02-34.95,3.02c9.94,0,24.09,4.98,34.95,3.02
				c-3.45,2.1-4.98,3.67-7.45,6.74c4.41-0.43,6.76-0.8,10.12-2.31c-2.66,6.02-3.2,9.4-3.73,15.44c3.07-3.57,4.64-5.74,6.56-10.65
				c-0.71,12.42,4.26,15.25,4.61,31.76c0.36-16.51,5.32-19.34,4.61-31.76c1.93,4.91,3.5,7.08,6.56,10.65
				c-0.53-6.04-1.06-9.42-3.72-15.44c3.36,1.51,5.71,1.87,10.11,2.31c-2.47-3.07-4-4.64-7.45-6.74
				C390.86-243.49,405.01-248.47,414.95-248.47z"/>
			<path class="st1" d="M437.68-179.97c-5.52-4.58-10.66-12.46-11.44-22.75c-1.08,10.23-3.2,18.14-8.21,23.96
				c0,0,6.33-3.1,8.62-9.15C429.6-182.67,437.68-179.97,437.68-179.97z"/>
			<path class="st1" d="M451.68-129.09c-1.22-5.97-6.31-11.18-12.92-13.73c2.71,6.99,1.7,13.8-2.15,19.79
				c0.9-7.77-1.47-13.21-5.79-18.04c1.36,4.83,1.24,9.27-1.08,13.87c0.94-8.48-6.17-12.79-15.62-18.44
				c-12.66-7.58-17.28-16.04-19.25-27.23c3.45,6.87,9.9,13.14,27.86,17.29C445.03-150.42,453.12-143.16,451.68-129.09z"/>
			
				<linearGradient id="SVGID_00000143587804447534199780000016594836640352125851_" gradientUnits="userSpaceOnUse" x1="55382.582" y1="36859.1914" x2="55359.2812" y2="36867.125" gradientTransform="matrix(-1 0 0 1 55830.9844 -37077.2266)">
				<stop  offset="0.2331" style="stop-color:#F7A600"/>
				<stop  offset="0.7607" style="stop-color:#FDC300"/>
			</linearGradient>
			<path style="fill:url(#SVGID_00000143587804447534199780000016594836640352125851_);" d="M451.41-221.3
				c4.69,4.6,6.91,12.19,7.27,21.72c0.47,12.53,5.41,17.66,13.33,18.53c-11.8-4.58-4.44-17.11-7.94-25.85
				c6.44,4.79,4.38,20.68,17.63,21.4c-9.78-3.2-2.84-16.67-9.29-24.5c7.81,0.11,11.4-6.12,21.54-3.23
				c-4.72-3.63-9.96-5.92-18.85-5.92c6.25-3.86,9-8.62,11.31-15.35C476.28-223.9,461.56-219.83,451.41-221.3z"/>
			
				<linearGradient id="SVGID_00000171683479139811108320000016796596144738664875_" gradientUnits="userSpaceOnUse" x1="-39115.207" y1="36859.1914" x2="-39138.5039" y2="36867.125" gradientTransform="matrix(1 0 0 1 39406.5586 -37077.2266)">
				<stop  offset="0.2331" style="stop-color:#F7A600"/>
				<stop  offset="0.7607" style="stop-color:#FDC300"/>
			</linearGradient>
			<path style="fill:url(#SVGID_00000171683479139811108320000016796596144738664875_);" d="M288.35-221.3
				c-4.69,4.6-6.91,12.19-7.27,21.72c-0.47,12.53-5.41,17.66-13.33,18.53c11.8-4.58,4.44-17.11,7.94-25.85
				c-6.44,4.79-4.38,20.68-17.63,21.4c9.78-3.2,2.84-16.67,9.29-24.5c-7.81,0.11-11.4-6.12-21.54-3.23
				c4.71-3.63,9.96-5.92,18.85-5.92c-6.25-3.86-9-8.62-11.31-15.35C263.47-223.9,278.2-219.83,288.35-221.3z"/>
			
				<linearGradient id="SVGID_00000002364108461282004290000007425025977490665919_" gradientUnits="userSpaceOnUse" x1="55490.0703" y1="-53213.7227" x2="55490.0703" y2="-53185.6172" gradientTransform="matrix(-1 0 0 -1 55830.9844 -53548.4453)">
				<stop  offset="0.2331" style="stop-color:#F7A600"/>
				<stop  offset="0.7607" style="stop-color:#FDC300"/>
			</linearGradient>
			<path style="fill:url(#SVGID_00000002364108461282004290000007425025977490665919_);" d="M315-369.73
				c2.64,13.83,25.37,16.26,30.29,34.06c3.77-19.12,21.29-19.87,21.54-33.11c-3.18,7.8-10.84,5.79-15.88,12.12
				c0.85-6.15,4.63-11.89,12.38-15.08c-7.67-1.08-15.63,1.83-19.12,9.56c-2.56-4.17-2.81-8.45-0.67-13.87
				c-4.71,3.63-7.49,9.3-5.65,16.56C330.62-366.77,319.98-362.73,315-369.73z"/>
			<path class="st5" d="M388.1-248.47c-4.26-0.66-9.39-3.2-14.13-1.22c2.32-1.8,1.14-3.51,2.53-5.2c-1.92,1.39-3.51,0.5-4.99,2.75
				c1.54-5.31-0.53-8.14-1.63-14.12c-1.1,5.98-3.17,8.81-1.63,14.12c-1.47-2.24-3.07-1.36-4.98-2.75c1.38,1.68,0.2,3.39,2.53,5.2
				c-4.74-1.98-9.88,0.56-14.13,1.22c4.26,0.67,9.39,3.2,14.13,1.22c-2.32,1.8-1.14,3.52-2.53,5.2c1.92-1.39,3.51-0.5,4.98-2.74
				c-1.54,5.31,0.53,8.14,1.63,14.12c1.1-5.98,3.17-8.81,1.63-14.12c1.48,2.24,3.07,1.36,4.99,2.74c-1.38-1.68-0.21-3.39-2.53-5.2
				C378.71-245.27,383.84-247.8,388.1-248.47z"/>
		</g>
		<g>
			
				<linearGradient id="SVGID_00000023962221246667216860000009170608067715575179_" gradientUnits="userSpaceOnUse" x1="-39167.0352" y1="36770.8789" x2="-39167.0352" y2="36798.9844" gradientTransform="matrix(1 0 0 1 39342.5586 -37062.6875)">
				<stop  offset="0.2331" style="stop-color:#F7A600"/>
				<stop  offset="0.7607" style="stop-color:#FDC300"/>
			</linearGradient>
			<path style="fill:url(#SVGID_00000023962221246667216860000009170608067715575179_);" d="M201.44-256.8
				c-2.64-13.83-25.37-16.26-30.29-34.06c-3.77,19.12-21.29,19.87-21.54,33.12c3.18-7.8,10.84-5.79,15.88-12.12
				c-0.85,6.15-4.63,11.89-12.38,15.08c7.67,1.08,15.62-1.83,19.12-9.56c2.56,4.17,2.81,8.45,0.67,13.87
				c4.71-3.63,7.49-9.3,5.65-16.56C185.82-259.76,196.46-263.8,201.44-256.8z"/>
			
				<radialGradient id="SVGID_00000091002384592160420160000006979873604314863543_" cx="-39260.0039" cy="-53170.3828" r="133.4365" gradientTransform="matrix(1 0 0 -1 39406.5586 -53548.4453)" gradientUnits="userSpaceOnUse">
				<stop  offset="0.3479" style="stop-color:#5EA62B"/>
				<stop  offset="0.7607" style="stop-color:#86BC25"/>
			</radialGradient>
			<path style="fill:url(#SVGID_00000091002384592160420160000006979873604314863543_);" d="M182.4-370.79
				c29.44,4.02,46.23,20.79,49.15,36.55c-3.92-9.25-12.98-15.22-23.6-18.63c10.62,14.01,7.19,31.87,21.12,41.7
				c-10.37-11.04-7.21-24.46-14.9-36.73c12.26,6.9,14.12,16.67,17.02,27.15c4.38,15.84,11.54,20.09,17.22,22.18
				c-11.7,0.45-28.66-4.53-36.78-20.1c-8.61-16.51-1.45-34.41-22.48-43.77c9.6,8.06,14.73,19.52,8.69,34.42
				c2.26-21.92-20.63-25.51-24.31-40.45c-0.63,11.53,7.18,21.22,14.55,25.9c-10.29-3.37-19.21-8.99-23.42-21.82
				c-6.92,21.39,5.31,38.46,12.9,38.46c2.63,0,4.54-1.67,4.54-4.16c0-6.45-11.64-6.45-14.6-18.86c5.32,10.82,25.55,8.87,25.55,20.76
				c0,9.74-13.64,14.04-22.36,7.98c6.39,8.34,21.26,8.62,25.55-1.42c0.66,4.31-1.31,10.76-7.45,13.13
				c-6.99,2.7-13.48-2.48-13.48-2.48c7.64,11.01,20.94,3.67,34.07,3.9c10.87,0.19,18.11,5.82,21.29,11.18
				c-2.97-1.49-4.64-1.89-7.63-1.95c6.29,3.88,10.85,12.79,9.05,21.47c-1.3-6.25-8.57-10.68-22.36-11.63
				c-15.56-1.08-23.81-3.57-29.1-9.3c11.2,4.96,28.94-1.91,40.99,6.03c-7.45-8.54-23.93-6.09-35.71-7.98
				c-20.71-3.32-33.32-38.29-31.71-53.63c-5.66,23.42,9.46,36.2,12.79,49.13c3.63,14.13-3.37,23.83-9.95,28.8
				c10.28-15.4-7.42-24.63-4.61-44.36c-5.23,19.19,4.44,24.66,4.44,34.6c0,9.76-8.58,12.99-10.29,25.55
				c-1.71-12.55-10.29-15.79-10.29-25.55c0-9.94,9.66-15.41,4.44-34.6c2.8,19.73-14.89,28.96-4.61,44.36
				c-6.58-4.98-13.58-14.67-9.95-28.8c3.32-12.93,18.44-25.71,12.79-49.13c1.62,15.35-11,50.31-31.71,53.63
				c-11.78,1.89-28.26-0.56-35.72,7.98c12.05-7.94,29.78-1.08,40.99-6.03c-5.29,5.73-13.54,8.23-29.1,9.3
				c-13.79,0.96-21.06,5.38-22.36,11.63c-1.8-8.67,2.75-17.59,9.05-21.47c-2.99,0.06-4.66,0.46-7.63,1.95
				c3.19-5.36,10.42-10.99,21.29-11.18c13.13-0.23,26.42,7.11,34.07-3.9c0,0-6.5,5.18-13.48,2.48c-6.15-2.37-8.12-8.82-7.45-13.13
				c4.29,10.04,19.16,9.76,25.55,1.42c-8.72,6.05-22.36,1.75-22.36-7.98c0-11.89,20.23-9.94,25.55-20.76
				c-2.96,12.41-14.6,12.41-14.6,18.86c0,2.49,1.91,4.16,4.54,4.16c7.58,0,19.82-17.06,12.9-38.46
				c-4.2,12.83-13.13,18.45-23.42,21.82c7.37-4.68,15.18-14.38,14.55-25.9c-3.68,14.95-26.56,18.53-24.31,40.45
				c-6.03-14.9-0.91-26.37,8.7-34.42c-21.03,9.37-13.87,27.26-22.48,43.77c-8.12,15.57-25.08,20.55-36.78,20.1
				c5.67-2.09,12.84-6.33,17.22-22.18c2.9-10.48,4.77-20.25,17.02-27.15c-7.69,12.27-4.54,25.69-14.9,36.73
				c13.92-9.83,10.5-27.68,21.11-41.7c-10.62,3.41-19.68,9.38-23.6,18.63c2.91-15.76,19.71-32.53,49.15-36.55
				c-30.33-1.29-36.17,15.55-51.46,16.16c-9.68,0.38-18.14-8.39-28.03-13.68c12.11,3.07,31.11,11.33,41.16-2.13
				c0,0-6.19,5.26-18.28,3.73c-12.27-1.56-23.46-9.4-54.12-11.36c30.65-1.96,41.84-9.8,54.12-11.36
				c12.08-1.54,18.28,3.72,18.28,3.72c-10.06-13.46-29.05-5.2-41.16-2.13c9.9-5.29,18.35-14.06,28.03-13.68
				c15.28,0.61,21.13,17.45,51.46,16.16c-29.44-4.02-46.23-20.79-49.15-36.55c3.92,9.25,12.98,15.22,23.6,18.63
				c-10.62-14.01-7.19-31.87-21.11-41.7c10.37,11.04,7.21,24.46,14.9,36.73c-12.26-6.89-14.13-16.67-17.02-27.14
				c-4.38-15.85-11.55-20.09-17.22-22.18c11.7-0.45,28.66,4.53,36.78,20.1c8.61,16.51,1.45,34.41,22.48,43.77
				c-9.6-8.05-14.73-19.52-8.7-34.42c-2.25,21.92,20.63,25.5,24.31,40.45c0.63-11.53-7.18-21.22-14.55-25.9
				c10.29,3.37,19.22,8.99,23.42,21.82c6.93-21.39-5.31-38.46-12.9-38.46c-2.63,0-4.54,1.67-4.54,4.16c0,6.45,11.64,6.45,14.6,18.85
				c-5.32-10.82-25.55-8.87-25.55-20.76c0-9.74,13.64-14.04,22.36-7.98c-6.39-8.34-21.26-8.62-25.55,1.42
				c-0.66-4.31,1.31-10.76,7.45-13.13c6.98-2.7,13.48,2.48,13.48,2.48c-7.64-11.01-20.94-3.67-34.07-3.9
				c-10.87-0.19-18.11-5.82-21.29-11.18c2.97,1.48,4.64,1.88,7.63,1.95c-6.29-3.88-10.85-12.8-9.05-21.47
				c1.3,6.25,8.57,10.68,22.36,11.63c15.56,1.08,23.81,3.57,29.1,9.3c-11.2-4.96-28.94,1.91-40.99-6.03
				c7.45,8.54,23.93,6.09,35.72,7.98c20.71,3.32,33.32,38.29,31.71,53.63c5.65-23.42-9.46-36.2-12.79-49.13
				c-3.63-14.13,3.37-23.83,9.95-28.8c-10.28,15.4,7.42,24.63,4.61,44.36c5.23-19.19-4.44-24.66-4.44-34.6
				c0-9.76,8.59-12.99,10.29-25.55c1.71,12.55,10.29,15.79,10.29,25.55c0,9.94-9.66,15.41-4.44,34.6
				c-2.8-19.73,14.89-28.96,4.61-44.36c6.58,4.97,13.58,14.67,9.95,28.8c-3.33,12.93-18.44,25.71-12.79,49.13
				c-1.62-15.35,11-50.31,31.71-53.63c11.78-1.89,28.26,0.56,35.71-7.98c-12.05,7.94-29.79,1.07-40.99,6.03
				c5.29-5.74,13.54-8.23,29.1-9.3c13.78-0.96,21.06-5.38,22.36-11.63c1.8,8.67-2.76,17.59-9.05,21.47
				c2.99-0.07,4.66-0.47,7.63-1.95c-3.19,5.36-10.42,10.98-21.29,11.18c-13.13,0.23-26.43-7.11-34.07,3.9c0,0,6.5-5.18,13.48-2.48
				c6.14,2.37,8.12,8.82,7.45,13.13c-4.29-10.04-19.16-9.76-25.55-1.42c8.72-6.05,22.36-1.75,22.36,7.98
				c0,11.89-20.23,9.94-25.55,20.76c2.96-12.4,14.6-12.4,14.6-18.85c0-2.49-1.91-4.16-4.54-4.16c-7.59,0-19.82,17.06-12.9,38.46
				c4.21-12.84,13.13-18.45,23.42-21.82c-7.37,4.68-15.18,14.37-14.55,25.9c3.68-14.95,26.56-18.53,24.31-40.45
				c6.03,14.9,0.91,26.37-8.69,34.42c21.03-9.36,13.87-27.26,22.48-43.77c8.12-15.57,25.08-20.55,36.78-20.1
				c-5.68,2.09-12.84,6.33-17.22,22.18c-2.9,10.48-4.77,20.25-17.02,27.14c7.69-12.26,4.54-25.69,14.9-36.73
				c-13.92,9.83-10.5,27.68-21.12,41.7c10.62-3.41,19.68-9.38,23.6-18.63c-2.92,15.76-19.71,32.53-49.15,36.55
				c30.33,1.29,36.17-15.55,51.45-16.16c9.68-0.38,18.14,8.39,28.04,13.68c-12.11-3.07-31.11-11.33-41.16,2.13
				c0,0,6.19-5.26,18.28-3.72c12.27,1.56,23.46,9.4,54.12,11.36c-30.65,1.96-41.84,9.8-54.12,11.36
				c-12.08,1.53-18.28-3.73-18.28-3.73c10.06,13.46,29.05,5.2,41.16,2.13c-9.9,5.29-18.35,14.06-28.04,13.68
				C218.57-355.23,212.72-372.08,182.4-370.79z M215.75-378.06c4.61,1.24,8.63,3.77,14.49,3.77c7.11,0,11.07-2.75,16.74-3.77
				c-5.67-1.02-9.63-3.77-16.74-3.77C224.39-381.83,220.37-379.3,215.75-378.06z M143.54-468.37c0,5.12,3.02,8.4,3.02,12.12
				c0-3.73,3.02-7,3.02-12.12c0-4.57-2.25-6.65-3.02-11.44C145.79-475.02,143.54-472.94,143.54-468.37z M77.36-378.06
				c-4.61-1.24-8.63-3.77-14.49-3.77c-7.11,0-11.07,2.75-16.74,3.77c5.67,1.02,9.63,3.77,16.74,3.77
				C68.73-374.29,72.75-376.82,77.36-378.06z M149.57-287.75c0-5.12-3.02-8.4-3.02-12.12c0,3.72-3.02,7-3.02,12.12
				c0,4.57,2.25,6.65,3.02,11.43C147.32-281.1,149.57-283.18,149.57-287.75z M191.62-378.06c-9.94,0-24.09-4.98-34.95-3.02
				c3.45-2.1,4.98-3.67,7.45-6.74c-4.41,0.43-6.76,0.8-10.11,2.31c2.66-6.02,3.19-9.4,3.72-15.44c-3.07,3.57-4.64,5.74-6.56,10.65
				c0.71-12.42-4.26-15.25-4.61-31.76c-0.36,16.51-5.32,19.34-4.61,31.76c-1.92-4.91-3.49-7.08-6.56-10.65
				c0.53,6.04,1.06,9.42,3.73,15.44c-3.36-1.51-5.71-1.88-10.12-2.31c2.47,3.07,4,4.64,7.45,6.74c-10.87-1.97-25.02,3.02-34.95,3.02
				c9.94,0,24.09,4.98,34.95,3.02c-3.45,2.1-4.98,3.67-7.45,6.74c4.41-0.43,6.76-0.79,10.12-2.3c-2.66,6.02-3.2,9.4-3.73,15.44
				c3.07-3.56,4.64-5.74,6.56-10.65c-0.71,12.42,4.26,15.25,4.61,31.76c0.36-16.51,5.32-19.34,4.61-31.76
				c1.93,4.9,3.5,7.08,6.56,10.65c-0.53-6.04-1.06-9.42-3.72-15.44c3.36,1.51,5.71,1.87,10.11,2.3c-2.47-3.07-4-4.64-7.45-6.74
				C167.54-373.08,181.69-378.06,191.62-378.06z"/>
			<path class="st1" d="M214.36-309.57c-5.52-4.58-10.66-12.46-11.44-22.75c-1.08,10.23-3.2,18.13-8.21,23.96
				c0,0,6.33-3.1,8.62-9.15C206.28-312.26,214.36-309.57,214.36-309.57z"/>
			<path class="st1" d="M228.36-258.68c-1.22-5.97-6.31-11.18-12.92-13.73c2.71,6.99,1.7,13.8-2.15,19.79
				c0.9-7.77-1.47-13.21-5.79-18.04c1.36,4.83,1.24,9.27-1.08,13.87c0.94-8.48-6.17-12.79-15.62-18.44
				c-12.66-7.58-17.28-16.04-19.25-27.23c3.45,6.87,9.9,13.14,27.86,17.29C221.71-280.01,229.8-272.76,228.36-258.68z"/>
			
				<linearGradient id="SVGID_00000180349018565695755230000003909520395713804952_" gradientUnits="userSpaceOnUse" x1="55605.9023" y1="36729.5977" x2="55582.6016" y2="36737.5352" gradientTransform="matrix(-1 0 0 1 55830.9844 -37077.2266)">
				<stop  offset="0.2331" style="stop-color:#F7A600"/>
				<stop  offset="0.7607" style="stop-color:#FDC300"/>
			</linearGradient>
			<path style="fill:url(#SVGID_00000180349018565695755230000003909520395713804952_);" d="M228.09-350.89
				c4.69,4.6,6.91,12.19,7.27,21.72c0.47,12.53,5.41,17.66,13.33,18.53c-11.8-4.58-4.44-17.11-7.94-25.85
				c6.44,4.79,4.38,20.68,17.63,21.4c-9.78-3.2-2.84-16.68-9.29-24.5c7.81,0.11,11.4-6.12,21.54-3.23
				c-4.72-3.63-9.96-5.92-18.85-5.92c6.25-3.86,9-8.62,11.31-15.35C252.96-353.49,238.24-349.42,228.09-350.89z"/>
			<path class="st5" d="M164.78-378.06c-4.26-0.66-9.39-3.2-14.13-1.22c2.32-1.8,1.14-3.52,2.53-5.2c-1.92,1.39-3.51,0.5-4.99,2.74
				c1.54-5.31-0.53-8.14-1.63-14.12c-1.1,5.97-3.17,8.81-1.63,14.12c-1.47-2.24-3.07-1.36-4.98-2.74c1.38,1.68,0.21,3.39,2.53,5.2
				c-4.74-1.98-9.88,0.55-14.13,1.22c4.26,0.67,9.39,3.2,14.13,1.22c-2.32,1.8-1.14,3.52-2.53,5.2c1.92-1.39,3.51-0.5,4.98-2.74
				c-1.54,5.31,0.53,8.14,1.63,14.12c1.1-5.98,3.17-8.81,1.63-14.12c1.48,2.24,3.07,1.36,4.99,2.74c-1.38-1.68-0.21-3.39-2.53-5.2
				C155.39-374.86,160.52-377.4,164.78-378.06z"/>
		</g>
	</g>
</pattern>
<pattern  id="SVGID_00000142863387098688618950000010801668344483428504_" xlink:href="#Gebladerte" patternTransform="matrix(0.7897 0 0 0.7897 -1332.8374 -1421.3292)">
</pattern>
<circle style="fill:#FFFFFF;stroke:url(#SVGID_00000142863387098688618950000010801668344483428504_);stroke-width:7;stroke-miterlimit:10;" cx="374.25" cy="263.56" r="163.21"/>
<circle class="st25" cx="372.86" cy="263.56" r="143.64"/>
<g>
	<path class="st27" d="M261.82,275.1c69.34-0.53,138.68-1.06,208.02-1.59"/>
	<path class="st27" d="M347.94,197.77c0.97-4.41,2.4-11.46,3.68-20.23c2.37-16.27,1.33-18.8,3.84-21.13
		c2.45-2.27,10.24-5.76,56.4,20.95c8.01,4.64,18.73,11.08,31.15,19.28"/>
	<path class="st27" d="M442.95,250.42h-69.1c-3.3,0-5.97-2.67-5.97-5.97V222c0-3.3,2.67-5.97,5.97-5.97h69.1
		c3.3,0,5.97,2.67,5.97,5.97v22.44C448.93,247.74,446.25,250.42,442.95,250.42z"/>
	<circle class="st27" cx="420.4" cy="324.28" r="18.86"/>
	<g>
		<path class="st27" d="M324.93,199.92c3.24-2.26,10.4-2.58,24.71-3.22c3.93-0.18,7.4-0.26,10.64-0.27
			c13.5-0.06,23.6,0.56,28.04,0.81c0,0,18.07,1.01,37.52,0.35c26.53-0.89,36.6-4.27,42.43,2.33c3.74,4.24,3.8,10.39,3.22,15.04
			c-0.2,13.45-0.19,24.21-0.15,31.66c0.1,15.04,0.16,20.45,0.16,20.45c0.1,14.69,0.09,17.77,0.08,19.88c0,0,0.13,8.86-0.54,23.64
			c-0.29,6.47-0.56,9.62-2.99,11.65c-1.94,1.63-5.16,1.7-11.52,1.77c-7.72,0.09-10.53-0.89-13.97,1.07
			c-2.3,1.32-3.69,3.22-4.46,4.51c-0.32,1.21-2.21,7.94-8.97,11.61c-6.57,3.56-12.98,1.66-14.75,1.13
			c-1.49-0.44-6.38-1.96-9.96-6.51c-4.51-5.71-2.84-9.29-5.86-13.19c-3.86-4.98-10.44-3.34-31.91-3.26
			c-20.54,0.08-25.89-1.37-30.08,3.22c-4.01,4.4-1.85,8.51-7.28,14.25c-0.8,0.85-6.1,6.29-14,6.28c-0.77,0-7.63-0.09-12.92-5.17
			c-5.59-5.37-3.24-10.39-8.25-13.74c-1.21-0.81-2.41-1.23-13.97-1.61c-12.35-0.41-13.33,0-14.79-1.26
			c-3.26-2.81-1.18-7.25-1.16-23.12c0-1.85-0.22-7.14-0.54-17.73c-0.28-9.41-0.4-14.18,0.54-17.73c0.87-3.28,2.28-8.62,6.98-12.89
			c4.68-4.25,10.5-5.51,12.36-5.91c3.94-0.85,5.49-0.31,9.67-1.61c0,0,3.96-1.23,7.84-3.76
			C311.85,231.59,312.14,208.86,324.93,199.92z"/>
		
			<ellipse transform="matrix(0.7071 -0.7071 0.7071 0.7071 -136.9497 317.9397)" class="st27" cx="315.3" cy="324.28" rx="18.89" ry="18.81"/>
	</g>
	<path class="st27" d="M342.11,216.02h7.38c0.93,0,1.68,0.75,1.68,1.68v29.16c0,0.18-0.15,0.33-0.33,0.33h-25.51
		c-0.23,0-0.39-0.23-0.31-0.45l10.37-26.15C336.48,217.83,339.14,216.02,342.11,216.02z"/>
</g>
</svg>
